<?xml version="1.0" encoding="UTF-8"?>
<!DOCTYPE svg PUBLIC "-//W3C//DTD SVG 1.1//EN" "http://www.w3.org/Graphics/SVG/1.1/DTD/svg11.dtd">
<svg xmlns="http://www.w3.org/2000/svg" xml:space="preserve" width="5.2085in" height="0.88476in" version="1.1"
  style="shape-rendering:geometricPrecision; text-rendering:geometricPrecision; image-rendering:optimizeQuality; fill-rule:evenodd; clip-rule:evenodd"
  viewBox="0 0 9921.82 1685.4"
  xmlns:xlink="http://www.w3.org/1999/xlink">
  <defs>
    <style type="text/css"><![CDATA[
      .fil0 { fill:#690064; fill-rule:nonzero }
      .fil1 { fill:#FB6F92; fill-rule:nonzero }
    ]]></style>
  </defs>
  <g id="Layer_x0020_1">
    <g id="_2916088330160">
      <path class="fil0" d="M646.54 1685.4c-125.65,0 -237.07,-26.3 -334.22,-78.9 -97.17,-52.6 -173.51,-124.92 -229.03,-216.97 -55.52,-92.05 -83.28,-196.52 -83.28,-313.41l0 -1049.81 298.07 0 0 1034.47c0,67.21 14.98,127.85 44.93,181.91 29.95,54.07 71.22,96.07 123.83,126.03 52.6,29.95 112.5,44.93 179.72,44.93 68.67,0 128.95,-14.98 180.82,-44.93 51.87,-29.95 92.78,-71.96 122.73,-126.03 29.95,-54.06 44.93,-114.69 44.93,-181.91l0 -1034.47 298.07 0 0 1049.81c0,116.89 -27.76,221.36 -83.28,313.41 -55.53,92.05 -131.87,164.38 -229.03,216.97 -97.17,52.6 -208.57,78.9 -334.23,78.9z"/>
      <path id="1" class="fil0" d="M2110.59 1672.25c-134.42,0 -238.53,-36.89 -312.32,-110.67 -73.78,-73.79 -110.68,-177.89 -110.68,-312.32l0 -526 -206.02 0 0 -256.43 21.92 0c58.44,0 103.74,-15.34 135.88,-46.03 32.14,-30.68 48.22,-75.24 48.22,-133.69l0 -92.05 287.11 0 0 271.77 273.96 0 0 256.43 -273.96 0 0 510.66c0,39.46 6.94,73.06 20.82,100.82 13.88,27.76 35.8,48.95 65.75,63.56 29.95,14.61 68.31,21.91 115.07,21.91 10.22,0 22.28,-0.73 36.16,-2.19 13.87,-1.46 27.39,-2.92 40.54,-4.38l0 245.47c-20.46,2.92 -43.84,5.84 -70.14,8.77 -26.29,2.92 -50.41,4.38 -72.32,4.38z"/>
      <path id="2" class="fil0" d="M3026.71 1685.4c-122.73,0 -230.13,-27.76 -322.18,-83.28 -92.04,-55.52 -163.64,-130.77 -214.78,-225.74 -51.13,-94.98 -76.71,-200.17 -76.71,-315.6 0,-119.82 25.93,-226.11 77.81,-318.89 51.87,-92.79 122.73,-166.21 212.59,-220.27 89.86,-54.06 190.31,-81.09 301.36,-81.09 93.51,0 175.7,15.34 246.56,46.03 70.86,30.69 131.13,73.05 180.81,127.12 49.68,54.06 87.67,115.8 113.97,185.2 26.29,69.4 39.45,144.29 39.45,224.65 0,20.45 -1.09,41.64 -3.28,63.56 -2.2,21.91 -6.21,40.91 -12.06,56.98l-920.5 0 0 -219.17 758.32 0 -135.89 103.01c13.15,-67.21 9.86,-127.11 -9.86,-179.72 -19.72,-52.6 -51.87,-94.24 -96.43,-124.92 -44.56,-30.69 -98.26,-46.03 -161.09,-46.03 -59.91,0 -113.24,14.98 -160,44.93 -46.75,29.95 -82.18,73.78 -106.29,131.5 -24.11,57.71 -33.24,127.48 -27.4,209.3 -5.84,73.05 4.02,137.71 29.59,193.97 25.57,56.26 63.56,99.72 113.97,130.4 50.41,30.68 108.48,46.03 174.23,46.03 65.75,0 121.64,-13.88 167.66,-41.65 46.03,-27.76 82.19,-65.01 108.49,-111.78l232.32 113.97c-23.38,56.98 -59.91,107.39 -109.59,151.22 -49.68,43.83 -108.49,78.17 -176.43,103.01 -67.94,24.84 -142.82,37.26 -224.65,37.26z"/>
      <path id="3" class="fil0" d="M3802.56 1659.1l0 -1192.27 269.58 0 0 265.2 -21.91 -39.46c27.76,-89.13 71.23,-151.22 130.4,-186.29 59.17,-35.06 130.4,-52.6 213.69,-52.6l70.13 0 0 254.23 -103.01 0c-81.82,0 -147.57,25.21 -197.25,75.61 -49.68,50.41 -74.52,120.91 -74.52,211.5l0 664.08 -287.11 0z"/>
      <path id="4" class="fil0" d="M4622.25 1659.1l0 -1192.27 287.11 0 0 1192.27 -287.11 0zm0 -1325.96l0 -306.84 287.11 0 0 306.84 -287.11 0z"/>
      <polygon id="5" class="fil0" points="5198.66,1659.1 5198.66,26.3 6287.93,26.3 6287.93,289.3 5496.73,289.3 5496.73,740.79 6189.3,740.79 6189.3,1003.79 5496.73,1003.79 5496.73,1659.1 "/>
      <polygon id="6" class="fil0" points="6458.88,1659.1 6458.88,0 6745.99,0 6745.99,1659.1 "/>
      <polygon class="fil0" points="8444.63,1659.1 8034.78,466.83 8337.23,466.83 8637.49,1371.99 8532.29,1369.8 8852.28,466.83 9106.52,466.83 9424.31,1369.8 9319.1,1371.99 9619.36,466.83 9921.82,466.83 9511.97,1659.1 9255.54,1659.1 8931.18,714.49 9027.61,714.49 8698.86,1659.1 "/>
      <path class="fil1" d="M7907.84 772.11c305.98,352.79 34.27,886.98 -450.54,886.98 -121.81,0 -250.68,-42 -341,-119.79 -496.68,-411.67 13.87,-1163.01 341,-1521.21 0,0 -43.95,299.85 450.54,754.02z"/>
    </g>
  </g>
</svg>
