<svg width="90" height="120" viewBox="0 0 90 120" fill="none" xmlns="http://www.w3.org/2000/svg">
<path d="M10.0319 93.5011L10.0114 103.761L10 10.5526L10.0251 42.2707C10.041 60.0201 10.1368 74.1387 10.2417 73.6465C10.3443 73.1544 10.4355 72.2864 10.4423 71.7181C10.4765 69.0805 12.0042 62.2125 13.5752 57.651C17.4469 46.396 25.2404 33.0537 35.1954 20.6443C37.3661 17.9374 42.6446 11.7964 43.3401 11.1678L43.9055 10.6555L44.17 13.217C44.6375 17.7427 46.0238 22.0872 48.6414 27.226C52.9782 35.7427 58.4345 42.7763 67.9769 52.1454C72.9384 57.0157 74.4342 58.7897 76.1306 61.8031C77.7655 64.7069 79.2293 69.0515 79.7469 72.5324C79.8655 73.3333 79.9567 61.0559 79.9726 41.9351L80 10V110L79.9726 94.5078C79.959 86.1007 79.9179 79.3468 79.8814 79.3468C79.8814 79.3468 79.8814 79.349 79.8792 79.3512C79.8427 79.5369 79.6922 80.443 79.544 81.3647C78.7573 86.302 76.4612 91.566 73.2098 95.8949C68.2117 102.55 60.3362 107.362 51.5554 109.13C48.7303 109.698 42.3049 109.942 39.8697 109.573C35.9274 108.973 32.5231 107.955 29.2397 106.394C22.9101 103.378 17.0844 97.6219 13.7668 91.0962C11.742 87.1163 11.1902 85.1275 10.2645 78.4564C10.1345 77.5168 10.0524 82.8524 10.0319 93.5011Z" fill="url(#paint0_linear_501_78186)"/>
<defs>
<linearGradient id="paint0_linear_501_78186" x1="45" y1="-7.3125" x2="45" y2="110" gradientUnits="userSpaceOnUse">
<stop offset="0.00961538" stop-color="#990090"/>
<stop offset="1" stop-color="#330030"/>
</linearGradient>
</defs>
</svg>
